<?xml version="1.0" encoding="UTF-8" standalone="no"?>
<!DOCTYPE svg PUBLIC "-//W3C//DTD SVG 1.1//EN"
 "http://www.w3.org/Graphics/SVG/1.1/DTD/svg11.dtd">
<!-- Generated by graphviz version 2.38.0 (20140413.2041)
 -->
<!-- Title: commands Pages: 1 -->
<svg width="471pt" height="400pt"
 viewBox="0.00 0.00 470.86 400.32" xmlns="http://www.w3.org/2000/svg" xmlns:xlink="http://www.w3.org/1999/xlink">
<g id="graph0" class="graph" transform="scale(1 1) rotate(0) translate(4 396.321)">
<title>commands</title>
<polygon fill="white" stroke="none" points="-4,4 -4,-396.321 466.86,-396.321 466.86,4 -4,4"/>
<!-- EventStream -->
<g id="node1" class="node"><title>EventStream</title>
<polygon fill="none" stroke="black" points="279.854,-36 183.006,-36 183.006,-0 279.854,-0 279.854,-36"/>
<text text-anchor="middle" x="231.43" y="-13.8" font-family="sans-serif" font-size="14.00">EventStream</text>
</g>
<!-- FetchAggregate -->
<g id="node2" class="node"><title>FetchAggregate</title>
<ellipse fill="none" stroke="black" cx="56.9974" cy="-192.432" rx="56.9947" ry="25.4118"/>
<text text-anchor="middle" x="56.9974" y="-195.232" font-family="sans-serif" font-size="14.00">Fetch</text>
<text text-anchor="middle" x="56.9974" y="-181.232" font-family="sans-serif" font-size="14.00">Aggregate</text>
</g>
<!-- EventStream&#45;&gt;FetchAggregate -->
<g id="edge1" class="edge"><title>EventStream&#45;&gt;FetchAggregate</title>
<path fill="none" stroke="black" d="M213.419,-36.0103C183.758,-65.672 124.29,-125.139 87.8307,-161.599"/>
<polygon fill="black" stroke="black" points="85.015,-159.465 80.4188,-169.011 89.9648,-164.415 85.015,-159.465"/>
<text text-anchor="middle" x="129.225" y="-101.605" font-family="sans-serif" font-size="14.00">Events</text>
</g>
<!-- Execute -->
<g id="node3" class="node"><title>Execute</title>
<ellipse fill="none" stroke="black" cx="231.43" cy="-366.865" rx="100.998" ry="25.4118"/>
<text text-anchor="middle" x="231.43" y="-369.665" font-family="sans-serif" font-size="14.00">Execute Command /</text>
<text text-anchor="middle" x="231.43" y="-355.665" font-family="sans-serif" font-size="14.00">UpdateAggregate</text>
</g>
<!-- FetchAggregate&#45;&gt;Execute -->
<g id="edge2" class="edge"><title>FetchAggregate&#45;&gt;Execute</title>
<path fill="none" stroke="black" d="M80.5221,-215.957C111.127,-246.562 164.739,-300.174 199.135,-334.57"/>
<polygon fill="black" stroke="black" points="197.045,-337.43 206.591,-342.026 201.995,-332.48 197.045,-337.43"/>
</g>
<!-- Execute&#45;&gt;Execute -->
<g id="edge3" class="edge"><title>Execute&#45;&gt;Execute</title>
<path fill="none" stroke="black" d="M329.921,-372.743C342.289,-371.707 350.429,-369.748 350.429,-366.865 350.429,-364.883 346.581,-363.337 340.158,-362.228"/>
<polygon fill="black" stroke="black" points="340.27,-358.716 329.921,-360.987 339.427,-365.665 340.27,-358.716"/>
<text text-anchor="middle" x="402.959" y="-362.665" font-family="sans-serif" font-size="14.00">Generate Events</text>
</g>
<!-- Commit -->
<g id="node4" class="node"><title>Commit</title>
<ellipse fill="none" stroke="black" cx="405.862" cy="-192.432" rx="56.9947" ry="25.4118"/>
<text text-anchor="middle" x="405.862" y="-195.232" font-family="sans-serif" font-size="14.00">Commit</text>
<text text-anchor="middle" x="405.862" y="-181.232" font-family="sans-serif" font-size="14.00">Aggregate</text>
</g>
<!-- Execute&#45;&gt;Commit -->
<g id="edge4" class="edge"><title>Execute&#45;&gt;Commit</title>
<path fill="none" stroke="black" d="M256.422,-341.873C287.775,-310.519 341.515,-256.78 375.287,-223.007"/>
<polygon fill="black" stroke="black" points="377.993,-225.252 382.589,-215.706 373.043,-220.302 377.993,-225.252"/>
</g>
<!-- Commit&#45;&gt;EventStream -->
<g id="edge5" class="edge"><title>Commit&#45;&gt;EventStream</title>
<path fill="none" stroke="black" d="M382.337,-168.908C349.571,-136.141 290.433,-77.0037 256.739,-43.3097"/>
<polygon fill="black" stroke="black" points="259.1,-40.7201 249.554,-36.1239 254.15,-45.6698 259.1,-40.7201"/>
<text text-anchor="middle" x="298.139" y="-108.909" font-family="sans-serif" font-size="14.00">Events</text>
</g>
</g>
</svg>
