<?xml version="1.0" encoding="UTF-8" standalone="no"?>
<!DOCTYPE svg PUBLIC "-//W3C//DTD SVG 1.1//EN"
 "http://www.w3.org/Graphics/SVG/1.1/DTD/svg11.dtd">
<!-- Generated by graphviz version 2.38.0 (20140413.2041)
 -->
<!-- Title: commands Pages: 1 -->
<svg width="443pt" height="364pt"
 viewBox="0.00 0.00 443.41 363.99" xmlns="http://www.w3.org/2000/svg" xmlns:xlink="http://www.w3.org/1999/xlink">
<g id="graph0" class="graph" transform="scale(1 1) rotate(0) translate(4 359.988)">
<title>commands</title>
<polygon fill="white" stroke="none" points="-4,4 -4,-359.988 439.411,-359.988 439.411,4 -4,4"/>
<!-- Commands -->
<g id="node1" class="node"><title>Commands</title>
<ellipse fill="pink" stroke="black" cx="314.26" cy="-18" rx="55.1438" ry="18"/>
<text text-anchor="middle" x="314.26" y="-13.8" font-family="sans-serif" font-size="14.00">Commands</text>
</g>
<!-- Events -->
<g id="node2" class="node"><title>Events</title>
<path fill="#9aff9a" stroke="black" stroke-width="0.5" d="M37.1424,-177.994C37.1424,-177.994 74.4279,-177.994 74.4279,-177.994 74.4279,-178.583 74.3679,-179.172 74.2483,-179.758 74.1287,-180.344 73.9495,-180.928 73.7114,-181.505 73.4733,-182.083 73.1766,-182.655 72.8224,-183.219 72.4681,-183.783 72.0567,-184.338 71.5897,-184.882 71.1226,-185.426 70.6005,-185.959 70.0252,-186.479 69.4499,-186.999 68.8221,-187.504 68.1441,-187.994 67.4661,-188.484 66.7387,-188.957 65.9645,-189.413 65.1902,-189.868 64.3702,-190.305 63.5072,-190.722 62.6442,-191.138 61.7394,-191.534 60.7961,-191.908 59.8527,-192.282 58.8718,-192.633 57.8571,-192.96 56.8424,-193.288 55.795,-193.591 54.7187,-193.868 53.6424,-194.146 52.5385,-194.398 51.4109,-194.624 50.2834,-194.849 49.1337,-195.048 47.9658,-195.219 46.798,-195.39 45.6134,-195.533 44.4165,-195.648 43.2195,-195.763 42.0116,-195.849 40.797,-195.907 39.5825,-195.965 38.3628,-195.994 37.1424,-195.994 35.922,-195.994 34.7024,-195.965 33.4878,-195.907 32.2733,-195.849 31.0654,-195.763 29.8684,-195.648 28.6715,-195.533 27.4869,-195.39 26.319,-195.219 25.1512,-195.048 24.0014,-194.849 22.8739,-194.624 21.7464,-194.398 20.6425,-194.146 19.5662,-193.868 18.4899,-193.591 17.4425,-193.288 16.4278,-192.96 15.413,-192.633 14.4322,-192.282 13.4888,-191.908 12.5454,-191.534 11.6406,-191.138 10.7777,-190.722 9.9147,-190.305 9.09464,-189.868 8.32042,-189.413 7.5462,-188.957 6.81876,-188.484 6.14074,-187.994 5.46272,-187.504 4.83493,-186.999 4.25963,-186.479 3.68434,-185.959 3.16223,-185.426 2.6952,-184.882 2.22817,-184.338 1.81678,-183.783 1.46251,-183.219 1.10825,-182.655 0.811535,-182.083 0.573445,-181.505 0.335356,-180.928 0.156177,-180.344 0.036556,-179.758 -0.0830649,-179.172 -0.142983,-178.583 -0.142983,-177.994 -0.142983,-177.994 37.1424,-177.994 37.1424,-177.994"/>
<path fill="pink" stroke="black" stroke-width="0.5" d="M37.1424,-177.994C37.1424,-177.994 -0.142983,-177.994 -0.142983,-177.994 -0.142983,-177.405 -0.0830649,-176.816 0.036556,-176.229 0.156177,-175.643 0.335356,-175.06 0.573445,-174.482 0.811535,-173.904 1.10825,-173.332 1.46251,-172.769 1.81678,-172.205 2.22817,-171.65 2.6952,-171.105 3.16223,-170.561 3.68434,-170.028 4.25963,-169.509 4.83493,-168.989 5.46272,-168.483 6.14074,-167.994 6.81876,-167.504 7.5462,-167.03 8.32042,-166.575 9.09464,-166.119 9.9147,-165.682 10.7777,-165.266 11.6406,-164.849 12.5454,-164.453 13.4888,-164.08 14.4322,-163.706 15.413,-163.355 16.4278,-163.027 17.4425,-162.7 18.4899,-162.397 19.5662,-162.119 20.6425,-161.841 21.7464,-161.589 22.8739,-161.364 24.0014,-161.138 25.1512,-160.94 26.319,-160.769 27.4869,-160.598 28.6715,-160.455 29.8684,-160.34 31.0654,-160.225 32.2733,-160.138 33.4878,-160.08 34.7024,-160.023 35.922,-159.994 37.1424,-159.994 38.3628,-159.994 39.5825,-160.023 40.797,-160.08 42.0116,-160.138 43.2195,-160.225 44.4165,-160.34 45.6134,-160.455 46.798,-160.598 47.9658,-160.769 49.1337,-160.94 50.2834,-161.138 51.4109,-161.364 52.5385,-161.589 53.6424,-161.841 54.7187,-162.119 55.795,-162.397 56.8424,-162.7 57.8571,-163.027 58.8718,-163.355 59.8527,-163.706 60.7961,-164.08 61.7394,-164.453 62.6442,-164.849 63.5072,-165.266 64.3702,-165.682 65.1902,-166.119 65.9645,-166.575 66.7387,-167.03 67.4661,-167.504 68.1441,-167.994 68.8221,-168.483 69.4499,-168.989 70.0252,-169.509 70.6005,-170.028 71.1226,-170.561 71.5897,-171.105 72.0567,-171.65 72.4681,-172.205 72.8224,-172.769 73.1766,-173.332 73.4733,-173.904 73.7114,-174.482 73.9495,-175.06 74.1287,-175.643 74.2483,-176.229 74.3679,-176.816 74.4279,-177.405 74.4279,-177.994 74.4279,-177.994 37.1424,-177.994 37.1424,-177.994"/>
<ellipse fill="none" stroke="black" cx="37.1424" cy="-177.994" rx="37.2854" ry="18"/>
<text text-anchor="middle" x="37.1424" y="-173.794" font-family="sans-serif" font-size="14.00">Events</text>
</g>
<!-- Commands&#45;&gt;Events -->
<g id="edge1" class="edge"><title>Commands&#45;&gt;Events</title>
<path fill="none" stroke="black" d="M286.93,-33.7787C235.58,-63.4261 124.905,-127.324 69.7562,-159.164"/>
<polygon fill="black" stroke="black" points="67.9922,-156.141 61.082,-164.172 71.4922,-162.203 67.9922,-156.141"/>
<text text-anchor="middle" x="149.157" y="-99.2714" font-family="sans-serif" font-size="14.00">Generate</text>
</g>
<!-- Aggregates -->
<g id="node3" class="node"><title>Aggregates</title>
<ellipse fill="pink" stroke="black" cx="129.515" cy="-18" rx="55.1783" ry="18"/>
<text text-anchor="middle" x="129.515" y="-13.8" font-family="sans-serif" font-size="14.00">Aggregates</text>
</g>
<!-- Events&#45;&gt;Aggregates -->
<g id="edge2" class="edge"><title>Events&#45;&gt;Aggregates</title>
<path fill="none" stroke="black" d="M47.2037,-160.567C63.2909,-132.703 94.9235,-77.9141 113.946,-44.9656"/>
<polygon fill="black" stroke="black" points="117.215,-46.3039 119.184,-35.8936 111.153,-42.8039 117.215,-46.3039"/>
<text text-anchor="middle" x="55.2821" y="-105.566" font-family="sans-serif" font-size="14.00">Apply to</text>
</g>
<!-- QueryModel -->
<g id="node4" class="node"><title>QueryModel</title>
<ellipse fill="#9aff9a" stroke="black" cx="129.515" cy="-337.988" rx="60.9653" ry="18"/>
<text text-anchor="middle" x="129.515" y="-333.788" font-family="sans-serif" font-size="14.00">Query model</text>
</g>
<!-- Events&#45;&gt;QueryModel -->
<g id="edge3" class="edge"><title>Events&#45;&gt;QueryModel</title>
<path fill="none" stroke="black" d="M47.2037,-195.42C63.2909,-223.284 94.9235,-278.073 113.946,-311.022"/>
<polygon fill="black" stroke="black" points="111.153,-313.184 119.184,-320.094 117.215,-309.684 111.153,-313.184"/>
<text text-anchor="middle" x="55.2821" y="-256.021" font-family="sans-serif" font-size="14.00">Apply to</text>
</g>
<!-- Aggregates&#45;&gt;Commands -->
<g id="edge7" class="edge"><title>Aggregates&#45;&gt;Commands</title>
<path fill="none" stroke="black" d="M184.944,-18C205.039,-18 227.926,-18 248.803,-18"/>
<polygon fill="black" stroke="black" points="248.869,-21.5001 258.869,-18 248.869,-14.5001 248.869,-21.5001"/>
<text text-anchor="middle" x="202.088" y="-20.8" font-family="sans-serif" font-size="14.00">Take</text>
</g>
<!-- Views -->
<g id="node5" class="node"><title>Views</title>
<ellipse fill="#9aff9a" stroke="black" cx="314.26" cy="-337.988" rx="33.5823" ry="18"/>
<text text-anchor="middle" x="314.26" y="-333.788" font-family="sans-serif" font-size="14.00">Views</text>
</g>
<!-- QueryModel&#45;&gt;Views -->
<g id="edge4" class="edge"><title>QueryModel&#45;&gt;Views</title>
<path fill="none" stroke="black" d="M190.263,-337.988C216.464,-337.988 246.525,-337.988 270.486,-337.988"/>
<polygon fill="black" stroke="black" points="270.691,-341.488 280.691,-337.988 270.691,-334.488 270.691,-341.488"/>
<text text-anchor="middle" x="252.947" y="-340.788" font-family="sans-serif" font-size="14.00">Update</text>
</g>
<!-- User -->
<g id="node6" class="node"><title>User</title>
<ellipse fill="lavender" stroke="black" cx="406.632" cy="-177.994" rx="28.5583" ry="18"/>
<text text-anchor="middle" x="406.632" y="-173.794" font-family="sans-serif" font-size="14.00">User</text>
</g>
<!-- User&#45;&gt;Commands -->
<g id="edge6" class="edge"><title>User&#45;&gt;Commands</title>
<path fill="none" stroke="black" stroke-dasharray="1,5" d="M396.747,-160.872C380.666,-133.018 348.724,-77.6938 329.652,-44.6595"/>
<polygon fill="black" stroke="black" points="332.669,-42.8848 324.637,-35.9746 326.606,-46.3848 332.669,-42.8848"/>
<text text-anchor="middle" x="341.806" y="-105.566" font-family="sans-serif" font-size="14.00">Orders</text>
</g>
<!-- User&#45;&gt;Views -->
<g id="edge5" class="edge"><title>User&#45;&gt;Views</title>
<path fill="none" stroke="black" stroke-dasharray="1,5" d="M396.747,-195.116C380.65,-222.997 348.66,-278.404 329.595,-311.427"/>
<polygon fill="black" stroke="black" points="326.323,-310.093 324.354,-320.504 332.385,-313.593 326.323,-310.093"/>
<text text-anchor="middle" x="336.329" y="-256.071" font-family="sans-serif" font-size="14.00">Browses</text>
</g>
</g>
</svg>
