<?xml version="1.0" encoding="UTF-8" standalone="no"?>
<!DOCTYPE svg PUBLIC "-//W3C//DTD SVG 1.1//EN"
 "http://www.w3.org/Graphics/SVG/1.1/DTD/svg11.dtd">
<!-- Generated by graphviz version 2.38.0 (20140413.2041)
 -->
<!-- Title: commands Pages: 1 -->
<svg width="359pt" height="281pt"
 viewBox="0.00 0.00 358.81 280.82" xmlns="http://www.w3.org/2000/svg" xmlns:xlink="http://www.w3.org/1999/xlink">
<g id="graph0" class="graph" transform="scale(1 1) rotate(0) translate(4 276.816)">
<title>commands</title>
<polygon fill="white" stroke="none" points="-4,4 -4,-276.816 354.811,-276.816 354.811,4 -4,4"/>
<!-- EventStream -->
<g id="node1" class="node"><title>EventStream</title>
<polygon fill="none" stroke="black" points="223.829,-36 126.981,-36 126.981,1.42109e-14 223.829,1.42109e-14 223.829,-36"/>
<text text-anchor="middle" x="175.405" y="-13.8" font-family="sans-serif" font-size="14.00">EventStream</text>
</g>
<!-- FetchAggregate -->
<g id="node2" class="node"><title>FetchAggregate</title>
<ellipse fill="none" stroke="black" cx="56.9974" cy="-136.408" rx="56.9947" ry="25.4118"/>
<text text-anchor="middle" x="56.9974" y="-139.208" font-family="sans-serif" font-size="14.00">Fetch</text>
<text text-anchor="middle" x="56.9974" y="-125.208" font-family="sans-serif" font-size="14.00">Aggregate</text>
</g>
<!-- EventStream&#45;&gt;FetchAggregate -->
<g id="edge1" class="edge"><title>EventStream&#45;&gt;FetchAggregate</title>
<path fill="none" stroke="black" d="M157.164,-36.2417C138.629,-54.7758 109.59,-83.8151 87.541,-105.864"/>
<polygon fill="black" stroke="black" points="84.9529,-103.503 80.3567,-113.049 89.9027,-108.452 84.9529,-103.503"/>
<text text-anchor="middle" x="100.952" y="-73.853" font-family="sans-serif" font-size="14.00">Events</text>
</g>
<!-- Execute -->
<g id="node3" class="node"><title>Execute</title>
<ellipse fill="none" stroke="black" cx="175.405" cy="-254.816" rx="42.1216" ry="18"/>
<text text-anchor="middle" x="175.405" y="-250.616" font-family="sans-serif" font-size="14.00">Execute</text>
</g>
<!-- FetchAggregate&#45;&gt;Execute -->
<g id="edge2" class="edge"><title>FetchAggregate&#45;&gt;Execute</title>
<path fill="none" stroke="black" d="M80.391,-159.802C100.92,-180.33 130.65,-210.061 151.369,-230.779"/>
<polygon fill="black" stroke="black" points="149.014,-233.375 158.56,-237.971 153.964,-228.425 149.014,-233.375"/>
</g>
<!-- Execute&#45;&gt;Execute -->
<g id="edge3" class="edge"><title>Execute&#45;&gt;Execute</title>
<path fill="none" stroke="black" d="M214.686,-261.551C226.372,-261.35 235.466,-259.105 235.466,-254.816 235.466,-251.867 231.168,-249.884 224.684,-248.868"/>
<polygon fill="black" stroke="black" points="224.93,-245.377 214.686,-248.081 224.38,-252.355 224.93,-245.377"/>
<text text-anchor="middle" x="287.997" y="-250.616" font-family="sans-serif" font-size="14.00">Generate Events</text>
</g>
<!-- Commit -->
<g id="node4" class="node"><title>Commit</title>
<ellipse fill="none" stroke="black" cx="293.813" cy="-136.408" rx="56.9947" ry="25.4118"/>
<text text-anchor="middle" x="293.813" y="-139.208" font-family="sans-serif" font-size="14.00">Commit</text>
<text text-anchor="middle" x="293.813" y="-125.208" font-family="sans-serif" font-size="14.00">Aggregate</text>
</g>
<!-- Execute&#45;&gt;Commit -->
<g id="edge4" class="edge"><title>Execute&#45;&gt;Commit</title>
<path fill="none" stroke="black" d="M192.119,-238.102C210.526,-219.695 240.516,-189.705 263.169,-167.052"/>
<polygon fill="black" stroke="black" points="265.646,-169.525 270.243,-159.979 260.697,-164.575 265.646,-169.525"/>
</g>
<!-- Commit&#45;&gt;EventStream -->
<g id="edge5" class="edge"><title>Commit&#45;&gt;EventStream</title>
<path fill="none" stroke="black" d="M270.42,-113.014C250.371,-92.9656 221.546,-64.1408 200.91,-43.5051"/>
<polygon fill="black" stroke="black" points="203.256,-40.9007 193.71,-36.3045 198.306,-45.8504 203.256,-40.9007"/>
<text text-anchor="middle" x="214.265" y="-81.0597" font-family="sans-serif" font-size="14.00">Events</text>
</g>
</g>
</svg>
