<?xml version="1.0" encoding="UTF-8" standalone="no"?>
<!DOCTYPE svg PUBLIC "-//W3C//DTD SVG 1.1//EN"
 "http://www.w3.org/Graphics/SVG/1.1/DTD/svg11.dtd">
<!-- Generated by graphviz version 2.38.0 (20140413.2041)
 -->
<!-- Title: cqrs Pages: 1 -->
<svg width="509pt" height="121pt"
 viewBox="0.00 0.00 509.30 120.63" xmlns="http://www.w3.org/2000/svg" xmlns:xlink="http://www.w3.org/1999/xlink">
<g id="graph0" class="graph" transform="scale(1 1) rotate(0) translate(4 116.63)">
<title>cqrs</title>
<polygon fill="white" stroke="none" points="-4,4 -4,-116.63 505.297,-116.63 505.297,4 -4,4"/>
<!-- CommandSide -->
<g id="node1" class="node"><title>CommandSide</title>
<polygon fill="none" stroke="black" points="112.735,-74.3148 -0.245698,-74.3148 -0.245698,-38.3148 112.735,-38.3148 112.735,-74.3148"/>
<text text-anchor="middle" x="56.2446" y="-52.1148" font-family="sans-serif" font-size="14.00">Command Side</text>
</g>
<!-- EventStore -->
<g id="node2" class="node"><title>EventStore</title>
<ellipse fill="none" stroke="black" cx="204.804" cy="-56.3148" rx="56.1302" ry="56.1302"/>
<text text-anchor="middle" x="204.804" y="-52.1148" font-family="sans-serif" font-size="14.00">Event Store</text>
</g>
<!-- CommandSide&#45;&gt;EventStore -->
<g id="edge1" class="edge"><title>CommandSide&#45;&gt;EventStore</title>
<path fill="none" stroke="black" d="M112.652,-49.7465C121.159,-49.5703 130.007,-49.5223 138.7,-49.6023"/>
<polygon fill="black" stroke="black" points="138.752,-53.1034 148.804,-49.755 138.858,-46.1042 138.752,-53.1034"/>
</g>
<!-- EventStore&#45;&gt;CommandSide -->
<g id="edge2" class="edge"><title>EventStore&#45;&gt;CommandSide</title>
<path fill="none" stroke="black" d="M148.804,-62.8746C140.309,-63.0548 131.463,-63.107 122.765,-63.031"/>
<polygon fill="black" stroke="black" points="122.703,-59.5299 112.652,-62.8831 122.6,-66.5291 122.703,-59.5299"/>
</g>
<!-- QuerySide -->
<g id="node3" class="node"><title>QuerySide</title>
<polygon fill="none" stroke="black" points="383.17,-74.3148 297.102,-74.3148 297.102,-38.3148 383.17,-38.3148 383.17,-74.3148"/>
<text text-anchor="middle" x="340.136" y="-52.1148" font-family="sans-serif" font-size="14.00">Query Side</text>
</g>
<!-- EventStore&#45;&gt;QuerySide -->
<g id="edge3" class="edge"><title>EventStore&#45;&gt;QuerySide</title>
<path fill="none" stroke="black" d="M261.19,-56.3148C269.634,-56.3148 278.327,-56.3148 286.705,-56.3148"/>
<polygon fill="black" stroke="black" points="286.73,-59.8149 296.73,-56.3148 286.73,-52.8149 286.73,-59.8149"/>
</g>
<!-- Queries -->
<g id="node4" class="node"><title>Queries</title>
<ellipse fill="none" stroke="black" cx="460.225" cy="-83.3148" rx="41.1439" ry="18"/>
<text text-anchor="middle" x="460.225" y="-79.1148" font-family="sans-serif" font-size="14.00">Queries</text>
</g>
<!-- QuerySide&#45;&gt;Queries -->
<g id="edge4" class="edge"><title>QuerySide&#45;&gt;Queries</title>
<path fill="none" stroke="black" d="M383.435,-65.9862C393.877,-68.3736 405.081,-70.9353 415.585,-73.337"/>
<ellipse fill="black" stroke="black" cx="419.558" cy="-74.2453" rx="4.00001" ry="4.00001"/>
</g>
<!-- Views -->
<g id="node5" class="node"><title>Views</title>
<ellipse fill="none" stroke="black" cx="460.225" cy="-29.3148" rx="33.5823" ry="18"/>
<text text-anchor="middle" x="460.225" y="-25.1148" font-family="sans-serif" font-size="14.00">Views</text>
</g>
<!-- QuerySide&#45;&gt;Views -->
<g id="edge5" class="edge"><title>QuerySide&#45;&gt;Views</title>
<path fill="none" stroke="black" d="M383.435,-46.6434C395.695,-43.8403 409.005,-40.7971 421,-38.0545"/>
<ellipse fill="black" stroke="black" cx="425.166" cy="-37.1021" rx="4.00001" ry="4.00001"/>
</g>
</g>
</svg>
